<?xml version="1.0"?><svg width="218" height="300" xmlns="http://www.w3.org/2000/svg">
 <title>yellow shoe</title>
 <metadata id="metadata2462">image/svg+xml</metadata>

 <g>
  <title>Layer 1</title>
  <path fill="#ffff00" id="path2470" d="m48.4935,294.747375c-1.924999,-0.668213 -4.48291,-1.77301 -5.68425,-2.45517c-1.201351,-0.682159 -2.64386,-1.240265 -3.205589,-1.240265c-0.561741,0 -2.679119,-1.125 -4.705292,-2.5c-2.02618,-1.375 -4.486099,-2.5 -5.466488,-2.5c-1.95396,0 -8.938372,-7.563934 -8.938372,-9.679993c0,-1.826965 0.113441,-1.809814 23.99999,3.626495c5.224998,1.189148 12.650002,2.828094 16.5,3.64212c10.481331,2.216064 15.499771,3.60199 16.005394,4.420074c0.249619,0.4039 -2.30999,2.207489 -5.688034,4.007965c-6.948059,3.703278 -16.60104,4.836548 -22.81736,2.678772zm12,-13.699127c-15.372478,-3.154297 -37.40568,-8.824982 -34.68857,-8.927765c1.682711,-0.06366 35.241331,7.237183 47.68857,10.374908c9.435501,2.37851 1.148537,1.456024 -13,-1.447144zm13,-1.496307c-4.7276,-1.096436 -5.008469,-1.280518 -2,-1.310944c1.925003,-0.01944 5.300003,0.557892 7.5,1.282928c5.094704,1.679077 1.693802,1.696411 -5.5,0.028015zm-18,-3.534393c-4.125,-0.986053 -12.674999,-2.990723 -19,-4.454834c-6.324999,-1.464081 -11.902319,-3.052765 -12.394051,-3.530426c-1.053928,-1.023743 -0.439579,-0.914703 13.394051,2.377289c5.775002,1.374268 14.887501,3.463409 20.25,4.642517c5.362499,1.179077 9.75,2.336426 9.75,2.571838c0,0.793488 -4.456318,0.19693 -12,-1.606384zm24.25,0.839325c-2.887497,-0.526611 -5.25,-1.296509 -5.25,-1.710907c0,-0.414398 3.023392,-0.131683 6.718643,0.628235c10.657524,2.191681 9.45858,3.075531 -1.468643,1.082672zm2.5,-3.497467c-8.194908,-1.576508 -10.702583,-3.458191 -3.5,-2.626251c4.859451,0.561279 14.750008,3.140686 14.750008,3.84671c0,0.714905 -2.728661,0.418884 -11.250008,-1.220459zm-27.75,-1.807465c-5.224998,-1.280487 -9.6875,-2.366821 -9.91666,-2.414063c-0.229168,-0.047272 -0.166611,-0.335999 0.139019,-0.641632c0.636623,-0.636627 18.510593,3.358551 20.777641,4.644226c2.502983,1.419434 -0.489159,0.987335 -11,-1.588531zm31.500008,-1.053711c-3.300011,-0.725922 -7.708206,-1.597595 -9.796021,-1.937012c-3.647064,-0.592957 -7.06868,-4.477905 -5.407166,-6.139404c0.341942,-0.341949 6.377525,0.596863 13.412445,2.086243c7.034912,1.48938 13.425171,2.746063 14.200607,2.792603c0.837593,0.050262 0.22876,1.029694 -1.5,2.412994c-3.2658,2.613159 -2.761955,2.576935 -10.909866,0.784576zm-29.349987,-2.081726c-7.783081,-1.687866 -11.05003,-3.288788 -6.803921,-3.334167c3.304581,-0.035309 13.710331,2.775818 15.103897,4.080322c1.207214,1.130066 -0.254234,0.998657 -8.299976,-0.746155zm-30.150021,-3.364563c-3.574999,-0.993622 -5.824829,-1.850098 -4.99962,-1.90329c2.02906,-0.130798 15.055502,2.625824 15.766031,3.336365c1.0807,1.080719 -4.29776,0.364807 -10.766411,-1.433075zm32,0.317322c-3.557079,-0.583832 -8,-2.425537 -8,-3.316193c0,-3.619324 11.06089,-3.62439 12.997398,-0.005981c2.076836,3.880554 1.349724,4.363922 -4.997398,3.322174zm-25.5,-2.789337c-4,-1.318268 -4,-1.318268 -0.831779,-1.423126c3.667381,-0.121368 6.331779,0.7211 6.331779,2.002136c0,1.113892 -0.533981,1.057678 -5.5,-0.57901zm-12.49999,-3.111969c-4.499999,-1.387604 -4.499999,-1.387604 -0.096128,-0.865387c4.309139,0.510986 9.462519,2.47287 6.096119,2.320801c-0.824999,-0.037292 -3.525,-0.6922 -5.99999,-1.455414zm15.99999,0.434326c-1.375,-0.562561 -6.54599,-1.782745 -11.4911,-2.711517c-8.935749,-1.678238 -10.669689,-2.841141 -8.722599,-5.850021c0.60886,-0.940887 2.00346,-0.896194 6.248749,0.200241c3.00572,0.776291 6.7607,1.639587 8.344391,1.918457c4.316601,0.76004 14.075279,2.898895 14.43985,3.164825c0.17561,0.128113 -0.270142,1.176727 -0.99054,2.330292c-1.414871,2.265564 -3.87883,2.563843 -7.828751,0.947723zm54.688309,-0.845184c-9.151375,-2.103088 -9.800728,-2.537689 -6.864578,-4.594238c1.211693,-0.848694 3.106178,-3.313354 4.209991,-5.477005c2.380951,-4.667053 1.563416,-4.572006 11.494041,-1.336319c11.447227,3.729858 11.139709,3.370117 7.250549,8.481781c-3.957909,5.202057 -5.201241,5.428131 -16.090004,2.925781zm-26.045761,-8.033371c-11.722679,-3.51297 -13.022438,-20.990326 -1.906406,-25.634903c12.69949,-5.306183 25.258106,8.846191 18.111401,20.409821c-3.299171,5.33815 -9.334198,7.284073 -16.204994,5.225082zm9.694336,-4.909775c1.55864,-0.592575 2.90712,-2.271255 3.662064,-4.558807c2.247726,-6.810638 -2.238235,-12.503204 -9.852974,-12.503204c-4.955421,0 -8.041061,2.463913 -8.766705,7.000305c-1.177708,7.362518 7.212475,13.006409 14.957615,10.061707zm-7.97525,-6.562012c-0.792191,-2.064423 0.281914,-4.5 1.98455,-4.5c2.001846,0 3.983879,2.697495 3.297073,4.487274c-0.749687,1.953659 -4.533318,1.962799 -5.281624,0.012726zm-18.177372,9.63504c-1.590813,-1.008759 -2.759689,-14.634933 -1.529091,-17.825378c0.583771,-1.513489 0.84483,0.045135 0.84483,5.043991c0,5.205688 0.49073,7.983246 1.75,9.905151c2.46767,3.766113 2.062401,4.859848 -1.065739,2.876236zm-20.164291,-3.812622c-6.314011,-1.346832 -11.801199,-2.96846 -12.19375,-3.603622c-0.757669,-1.225922 3.93235,-10.718796 5.2957,-10.718796c0.442221,0 3.08736,0.899994 5.87808,2c6.41721,2.529419 8,2.517746 8,-0.059021c0,-1.315216 -0.45155,-1.832336 -1.25,-1.431503c-0.6875,0.345123 0.28566,-0.734665 2.162571,-2.399536c1.876919,-1.664856 3.85894,-2.751144 4.40451,-2.413986c0.57085,0.352814 0.6763,0.102341 0.248409,-0.590012c-0.573502,-0.927933 -1.099201,-0.907883 -2.298759,0.087662c-1.349041,1.119598 -1.46088,0.993469 -0.843582,-0.951447c1.083523,-3.413879 -1.069199,-2.696228 -2.2733,0.757843c-0.575188,1.649994 -1.761749,3 -2.63678,3c-1.318169,0 -1.24136,-0.375275 0.447983,-2.188568c1.121418,-1.203705 2.003429,-2.891205 1.960007,-3.75c-0.055988,-1.107376 -0.230759,-1.182526 -0.600998,-0.258438c-0.3922,0.978882 -0.883781,0.854523 -1.976219,-0.5c-1.33456,-1.654694 -1.363571,-1.616226 -0.35276,0.467682c1.43454,2.957428 0.380959,4.5336 -2.643951,3.955338c-2.347429,-0.44873 -2.3661,-0.404465 -0.635889,1.507401c1.76849,1.954163 1.753,1.955612 -1.96434,0.182938c-4.401741,-2.099045 -4.41214,-2.143692 -1.496901,-6.424637c3.726841,-5.472748 4.611681,-5.583328 11.080479,-1.384766c5.184082,3.364716 5.757462,4.065155 5.188251,6.337906c-0.351959,1.405334 -0.899818,3.905151 -1.217468,5.555145c-0.664043,3.44928 -2.351624,4.940094 -3.61919,3.197205c-0.582241,-0.800537 -0.692421,-0.638794 -0.332573,0.48819c0.295982,0.926971 0.000931,1.903931 -0.65567,2.171051c-0.656609,0.26712 -0.40633,0.521179 0.556171,0.564606c0.962502,0.043411 1.75,-0.371048 1.75,-0.921051c0,-0.550003 0.35323,-1 0.78495,-1c0.431721,0 1.238338,2.475006 1.792488,5.5c0.695351,3.795807 0.684532,5.464554 -0.034946,5.385605c-0.573372,-0.062912 -6.2085,-1.216339 -12.522522,-2.563187zm6.2262,-7.155746c0.272308,-1.041321 -0.050041,-1.833344 -0.74617,-1.833344c-0.696121,0 -1.018471,0.792023 -0.746159,1.833344c0.26368,1.008331 0.599461,1.833328 0.746159,1.833328c0.146709,0 0.482479,-0.824997 0.74617,-1.833328zm5.039509,-7.151093c0.289902,-1.108566 0.119213,-2.015579 -0.379299,-2.015579c-0.498501,0 -0.913269,0.5625 -0.921688,1.25c-0.010212,0.833328 -0.33844,0.75 -0.984692,-0.25c-0.828419,-1.281906 -0.9716,-1.245544 -0.98468,0.25c-0.008419,0.962494 0.461239,1.75 1.043701,1.75c0.582458,0 0.73793,0.519531 0.34549,1.15451c-0.412342,0.667191 -0.277161,0.884811 0.320278,0.515579c0.568592,-0.35141 1.270992,-1.545944 1.56089,-2.65451zm70.714329,12.9254c0,-0.582458 -0.480286,-0.762177 -1.067307,-0.399384c-0.5877,0.36322 -1.314148,-0.284302 -1.616631,-1.440979c-0.302132,-1.155334 -0.973404,-2.100616 -1.491707,-2.100616c-0.518311,0 -0.664261,0.449997 -0.324356,1c0.33992,0.550003 -0.098015,1 -0.973198,1c-0.875191,0 -1.998222,-1.012497 -2.495628,-2.25c-0.673195,-1.674805 -0.920601,-1.810654 -0.967781,-0.531387c-0.039497,1.071121 -0.604729,1.51088 -1.500237,1.167252c-0.790276,-0.303268 -1.192146,-1.189148 -0.893021,-1.968628c0.62307,-1.623672 -0.998924,-1.846832 -3.539749,-0.487015c-2.269241,1.214462 -3.663147,0.220505 -4.503212,-3.21109c-0.612625,-2.502472 1.134995,-6.191528 5.941956,-12.542877c0.36454,-0.481659 5.726952,2.416336 10.774223,5.822708c2.445679,1.650574 4.907471,3.001038 5.470642,3.001038c1.922386,0 7.173347,3.496933 7.179688,4.781372c0.003471,0.704773 -0.676758,1.543518 -1.511642,1.863892c-2.216881,0.850693 -7.4795,-1.617691 -7.497345,-3.516586c-0.011436,-1.2155 -0.220665,-1.305115 -0.82473,-0.353256c-1.130859,1.781921 -7.031212,-0.687363 -6.367096,-2.664627c0.32325,-0.962402 0.04715,-1.129959 -0.898727,-0.545364c-0.750938,0.464096 -2.83432,0.717255 -4.629753,0.562576c-6.631149,-0.571304 -2.933899,2.079651 13.435745,9.633545c3.165596,1.460785 3.916847,2.221466 3.049995,3.088318c-1.44368,1.44368 -4.75013,1.507095 -4.75013,0.09111zm6,-8.940979c0,-0.550003 -0.674995,-1 -1.5,-1c-0.824997,0 -1.5,0.449997 -1.5,1c0,0.550003 0.675003,1 1.5,1c0.825005,0 1.5,-0.449997 1.5,-1zm-32.895874,-17.430618c-1.717003,-3.786758 -2.95816,-7.048676 -2.758141,-7.248688c0.540474,-0.540497 9.981445,6.016235 10.337379,7.179306c0.168335,0.550003 -0.765739,2.339737 -2.075684,3.977203c-2.381737,2.977188 -2.381737,2.977188 -5.503555,-3.907822zm-28.116295,2.444824c6.670761,-4.425369 18.680481,-6.569489 19.683952,-3.514206c0.198906,0.605606 -2.563171,1 -7.00325,1c-6.368591,0 -7.853481,0.361237 -11.30386,2.75c-2.1847,1.512497 -4.397991,2.748062 -4.91843,2.745712c-0.520432,-0.00235 1.07328,-1.34404 3.541588,-2.981506zm-13.043278,-3.832687c-1.955502,-1.474838 -4.642109,-3.402527 -5.970261,-4.283737c-2.41481,-1.602234 -2.41481,-1.602234 1.519951,-6.761826c4.226959,-5.542755 6.0746,-6.090652 5.890278,-1.746674c-0.081367,1.917587 0.287861,2.566681 1.25,2.197464c0.81604,-0.313141 1.393761,0.167542 1.43576,1.194626c0.058632,1.43367 0.21278,1.387024 0.92971,-0.281372c0.578972,-1.347305 0.887371,-1.510498 0.94503,-0.5c0.076092,1.333328 0.19331,1.333328 1.05497,0c0.533161,-0.824997 0.969379,-1.050003 0.969379,-0.5c0,1.911316 -1.48632,3.001282 -4.39257,3.221207c-1.60775,0.121674 -3.330479,0.796677 -3.828289,1.5c-0.599239,0.846649 -0.75499,0.341415 -0.460911,-1.495071c0.244289,-1.52562 -0.014999,-3.057663 -0.576218,-3.40451c-0.561222,-0.346863 -0.740292,-0.177399 -0.39793,0.376541c0.342358,0.553955 -0.0238,1.860977 -0.81369,2.90451c-0.78989,1.043533 -1.443581,2.572327 -1.452652,3.397324c-0.01466,1.333328 0.091221,1.333328 0.952881,0c0.8354,-1.292694 0.9715,-1.266296 0.984692,0.190979c0.01704,1.881943 1.787937,3.369736 2.802887,2.354782c0.35997,-0.359985 -0.007458,-1.073151 -0.81654,-1.584824c-1.223278,-0.773636 -1.166348,-0.932892 0.337982,-0.945633c0.994961,-0.008423 1.577259,-0.390305 1.293991,-0.848633c-0.283272,-0.458344 0.074577,-0.833344 0.795208,-0.833344c1.078659,0 1.077549,0.448532 -0.006321,2.537674c-1.40987,2.717529 -1.194748,3.743225 0.557892,2.660034c0.595558,-0.368073 0.773148,-1.200638 0.39463,-1.850143c-0.37851,-0.64949 0.28756,-0.325089 1.48016,0.720901c1.660748,1.456573 1.906418,2.217407 1.04945,3.25c-1.460522,1.759811 -1.73785,1.69104 -5.92947,-1.470276zm8.727718,-4.015701c-1.286179,-1.442459 -1.293808,-1.841461 -0.056839,-2.975769c0.785671,-0.720474 1.184929,-1.704056 0.887241,-2.18573c-0.502472,-0.813004 2.001308,-0.277023 6.997318,1.497925c1.099998,0.390808 0.537498,-0.230713 -1.25,-1.381149c-1.787498,-1.150436 -3.25,-2.516159 -3.25,-3.034958c0,-0.518814 -0.707138,-1.650421 -1.571419,-2.514709c-1.428581,-1.428574 -1.337669,-1.571426 1,-1.571426c1.41428,0 2.571419,-0.435883 2.571419,-0.968628c0,-0.53273 0.5625,-0.831482 1.25,-0.663879c0.6875,0.167603 0.912498,0.115967 0.5,-0.114731c-0.412498,-0.230682 -0.794849,-1.39444 -0.849678,-2.58609c-0.090191,-1.960587 -0.165802,-1.928894 -0.794952,0.333328c-0.854877,3.073853 -5.58638,3.579056 -7.530079,0.804016c-0.690071,-0.985214 -1.623959,-1.45665 -2.07531,-1.047653c-0.45134,0.408997 -0.49239,0.173798 -0.091202,-0.522675c0.40118,-0.696472 1.143169,-1.010605 1.648872,-0.698059c0.505688,0.312531 0.688019,-0.034836 0.40517,-0.771957c-0.282864,-0.737091 0.824966,-2.623276 2.461838,-4.191498c2.976131,-2.851303 2.976131,-2.851303 10.275742,3.872803c6.521492,6.007355 10.51162,11.701202 10.725441,15.305023c0.051102,0.861313 -1.713821,1.256836 -5.675842,1.271957c-3.464508,0.013229 -7.40794,0.774734 -9.921188,1.915833c-3.885231,1.764023 -4.273022,1.779663 -5.656532,0.228027zm9.327721,-7.165817c0,-0.550003 -1.237499,-0.955139 -2.75,-0.900314c-2.75,0.09967 -2.75,0.09967 -0.25,0.900314c1.375,0.440353 2.612499,0.845505 2.75,0.900314c0.137501,0.054825 0.25,-0.350311 0.25,-0.900314zm94.250015,-25.596008c-2.337509,-2.476135 -4.25,-4.255005 -4.25,-3.953033c0,0.301971 -0.854401,-0.238464 -1.898651,-1.200958c-1.04425,-0.962494 -3.06926,-2.809738 -4.5,-4.104965c-1.43074,-1.295227 -2.601349,-2.795776 -2.601349,-3.334549c0,-1.048782 12.361572,9.473297 14.324875,12.193237c0.646317,0.895386 1.962616,1.921722 2.925125,2.280746c1.703125,0.635284 2.500275,2.762512 1,2.668564c-0.412506,-0.025848 -2.662506,-2.072906 -5,-4.549042zm9.306702,-5.626495c-0.856186,-1.222382 -1.556702,-1.865234 -1.556702,-1.428574c0,0.436661 -0.675003,0.118942 -1.5,-0.70607c-2.000504,-2.000488 -1.890549,-2.557739 0.387131,-1.962112c2.180389,0.570175 3.714783,-1.190704 1.97467,-2.266144c-0.731232,-0.451935 -0.902924,-0.290146 -0.457291,0.430893c0.855713,1.384583 -0.339661,1.481094 -2.378128,0.191986c-0.937408,-0.592819 -1.705475,-0.556732 -2.110825,0.099152c-0.379547,0.614105 -0.891068,0.369568 -1.264938,-0.604721c-0.38855,-1.012512 -0.225571,-1.387253 0.427719,-0.98349c0.580475,0.358749 0.972,0.044632 0.870056,-0.698074c-0.101944,-0.742676 -0.118362,-2.250336 -0.036469,-3.350342c0.136642,-1.835464 0.232162,-1.85704 1.161316,-0.262268c1.431854,2.457687 5.100845,4.379532 4.280716,2.242279c-0.330566,-0.86145 -0.809189,-1.358124 -1.063599,-1.103714c-0.254395,0.254395 -1.76062,-0.963684 -3.347137,-2.706879c-1.586533,-1.743179 -2.897781,-2.606918 -2.91391,-1.919418c-0.016129,0.6875 0.40657,1.25 0.939301,1.25c0.53273,0 0.704514,0.688232 0.381729,1.529388c-0.507004,1.321213 -0.763733,1.287521 -1.886124,-0.247437c-1.159271,-1.585388 -1.275909,-1.439545 -1.08252,1.353683c0.192734,2.783951 0.017532,3.006134 -1.582489,2.006897c-0.989563,-0.617996 -1.79921,-1.465378 -1.79921,-1.883087c0,-0.417694 -0.622528,-0.759445 -1.383377,-0.759445c-0.760849,0 -1.630356,-0.944504 -1.932251,-2.098907c-0.30188,-1.154419 -0.306,-1.856049 -0.009155,-1.559219c0.554382,0.554413 6.413376,-7.686203 8.952667,-12.591873c0.782913,-1.512497 1.896744,-2.75 2.475204,-2.75c1.708359,0 19.794815,11.40683 19.848099,12.517868c0.083954,1.750565 -4.956223,8.482132 -6.350876,8.482132c-0.730179,0 -2.488693,-1.161118 -3.907837,-2.580246c-1.419144,-1.419128 -3.212936,-2.673111 -3.986206,-2.786606c-0.77327,-0.113495 -2.631454,-1.009323 -4.129288,-1.990753c-2.723358,-1.784409 -2.723358,-1.784409 -1.513321,0.476578c0.665527,1.24353 3.475403,4.343979 6.244171,6.889862c3.261841,2.999268 4.762268,5.06871 4.261978,5.878189c-0.424667,0.687119 -1.326599,1.036545 -2.004288,0.776489c-0.677704,-0.260056 -1.232193,0.139465 -1.232193,0.887833c0,0.748367 0.419891,1.101166 0.93309,0.783981c0.513214,-0.317169 0.422394,0.377625 -0.201843,1.543991c-1.412323,2.638977 -1.591797,2.633774 -3.507874,-0.101822zm-29.556702,-10.183304c0,-1.949554 1.274704,-2.660477 2.932846,-1.635696c1.033966,0.639023 0.852982,1.085754 -0.797745,1.969208c-1.731934,0.926895 -2.135101,0.863922 -2.135101,-0.333511zm8.029831,-7.910919c-0.016403,-0.999191 1.096466,-3.293381 2.473053,-5.098175c1.376587,-1.804794 3.550369,-5.262268 4.830627,-7.683273c2.318085,-4.38356 4.883316,-5.756363 5.422348,-2.901825c0.155792,0.824997 -0.850555,2.717865 -2.236298,4.20636c-1.385773,1.488495 -2.53299,3.063492 -2.549408,3.5c-0.016403,0.436493 -1.802994,2.818634 -3.970154,5.29364c-2.857162,3.262985 -3.948532,4.000595 -3.970169,2.683273zm-10.529831,-5.214447c-1.521561,-1.241669 -1.601181,-1.508072 -0.332764,-1.113602c0.939285,0.292099 1.916672,-0.131546 2.238556,-0.970306c0.314209,-0.818832 0.167053,-1.238953 -0.327011,-0.933609c-1.283783,0.793411 -4.174866,-0.486832 -3.514023,-1.556091c0.304291,-0.492371 0.027924,-0.895218 -0.614151,-0.895218c-0.745911,0 -0.940872,-0.902664 -0.539978,-2.5c0.345123,-1.375 0.217041,-2.5 -0.284592,-2.5c-1.230026,0 -2.285843,2.932419 -1.508614,4.190002c0.360962,0.584045 -0.269882,0.531189 -1.49675,-0.125427c-1.166382,-0.624222 -2.127571,-0.781601 -2.135986,-0.349762c-0.008423,0.431854 -0.404701,0.170563 -0.880615,-0.580643c-0.52375,-0.826721 -0.35276,-2.353714 0.433189,-3.868652c0.735001,-1.416702 1.060364,-3.970184 0.749763,-5.884171c-0.30777,-1.896591 -0.122429,-3.381348 0.422089,-3.381348c0.533943,0 4.502769,3.288925 8.819603,7.308716c7.848801,7.308701 7.848801,7.308701 4.410034,11.050461c-3.263611,3.551178 -3.540619,3.658615 -5.438751,2.10965zm41,-7.619308c-10.012589,-6.756439 -10.388641,-7.210098 -8.085861,-9.754654c1.816483,-2.007187 8.585861,-18.233452 8.585861,-20.580399c0,-2.174843 0.887909,-1.981888 12.48317,2.71286c9.880753,4.000572 10.41127,4.362663 9.890076,6.75c-1.014725,4.647934 -3.518707,11.994537 -4.240128,12.440399c-0.39267,0.242691 -2.807953,-0.862091 -5.367294,-2.455078c-5.703094,-3.549683 -10.974319,-5.1548 -8.98172,-2.734955c0.706268,0.857681 3.734558,3.069824 6.729553,4.915863c2.994995,1.846039 5.454651,3.745544 5.465881,4.221115c0.040924,1.730087 -5.327209,10.634262 -6.388474,10.596664c-0.600082,-0.021255 -5.141068,-2.771576 -10.091064,-6.111816zm-61.500008,0.150482c0,-1.866669 0.26667,-2.133331 1.200005,-1.199997c0.933327,0.933319 0.933327,1.46666 0,2.399994c-0.933334,0.933334 -1.200005,0.666672 -1.200005,-1.199997zm25.500008,-11.071732c-8.044861,-6.901711 -9.096329,-8.928268 -4.632339,-8.928268c1.657867,0 3.292419,-0.450005 3.632339,-1c0.33992,-0.550003 1.502609,-1 2.583771,-1c1.146393,0 2.340286,-0.985168 2.86438,-2.363625c0.494247,-1.299973 1.675171,-2.661583 2.624252,-3.025787c2.001877,-0.768188 10.104309,2.069862 10.708038,3.750725c0.420837,1.171646 -9.174179,18.664963 -10.205032,18.605469c-0.316467,-0.01825 -3.725418,-2.73558 -7.575409,-6.038513zm-21.852509,1.310379c-0.26989,-0.436676 0.319946,-3.188553 1.31073,-6.115257c2.125694,-6.279121 3.60778,-5.256851 1.946091,1.342308c-1.146439,4.552948 -2.325165,6.280396 -3.256821,4.772949zm41.963837,-0.809128c-0.362946,-0.945786 0.334183,-3.211716 1.626785,-5.287659c3.044632,-4.889763 5.134186,-9.68264 6.710403,-15.391861c1.444946,-5.233711 4.084427,-6.553047 4.001221,-2c-0.059448,3.253647 -8.971024,23.423752 -10.587097,23.962448c-0.613922,0.204636 -1.402008,-0.372681 -1.751312,-1.282928zm-70.582375,-0.390457c-0.809082,-0.511673 -1.210976,-1.190369 -0.89312,-1.50824c0.787743,-0.78775 3.864159,0.467102 3.864159,1.576172c0,1.139771 -1.101181,1.114609 -2.971039,-0.067932zm19.971039,-2.539063c-2.5,-1.429138 -2.5,-1.429138 0.583336,-1.464554c2.089828,-0.024033 3.083336,0.447876 3.083336,1.464554c0,1.829102 -0.46698,1.829102 -3.666672,0zm3.349342,-3.967972c0.309822,-0.807388 0.132973,-1.733948 -0.393013,-2.059021c-0.525978,-0.325081 -0.956329,-1.069588 -0.956329,-1.654465c0,-0.670593 0.554115,-0.603561 1.5,0.181458c2.309082,1.916359 1.881905,-0.434784 -0.87146,-4.796371c-1.304298,-2.066147 -2.688919,-5.202049 -3.076927,-6.968658c-0.388008,-1.766624 -1.225449,-3.533394 -1.860962,-3.926163c-1.639381,-1.013191 -4.690651,-1.125778 -4.690651,-0.17308c0,0.440834 -0.76474,0.508041 -1.699425,0.149361c-1.062981,-0.407898 -1.250229,-0.801872 -0.5,-1.051941c0.659691,-0.219894 1.199425,-0.828148 1.199425,-1.351669c0,-0.543991 -0.911476,-0.464035 -2.127174,0.186584c-1.65918,0.88797 -2.315826,0.840706 -2.98468,-0.214813c-0.669716,-1.05687 -0.86087,-0.976837 -0.872826,0.365372c-0.010384,1.165092 -0.532829,1.52002 -1.622139,1.102005c-1.6866,-0.647194 -1.363892,-7.497055 0.3806,-8.078545c0.451515,-0.150513 0.633224,-1.881615 0.403778,-3.846893c-0.41716,-3.573235 -0.41716,-3.573235 7.810532,0.720352c8.227684,4.293587 8.227684,4.293587 7.659325,8.440231c-0.717239,5.232811 0.726875,10.547157 3.886421,14.302055c2.353317,2.796776 2.393318,3.072281 0.948143,6.531059c-1.413429,3.382813 -3.35836,5.337311 -2.132637,2.143143zm-20.099342,-3.752518c-1.237511,-0.596832 -2.25,-1.934113 -2.25,-2.971748c0,-1.56427 0.239059,-1.666306 1.399139,-0.597191c0.769531,0.70919 1.226532,1.46994 1.015556,1.690544c-0.210991,0.220627 0.396904,0.993813 1.350861,1.718201c2.078659,1.578453 1.542648,1.635101 -1.515556,0.160194zm16.75,-2.77951c0,-1.866669 0.26667,-2.133331 1.200005,-1.200005c0.933327,0.933334 0.933327,1.466675 0,2.400002c-0.933334,0.933334 -1.200005,0.666672 -1.200005,-1.199997zm15.418961,-2.555489c-7.706436,-2.829773 -10.430565,-11.697594 -6.197281,-20.17392c2.69014,-5.38649 6.014549,-7.270584 12.828667,-7.270584c8.763779,0 14.330048,7.828354 12.500504,17.580635c-1.625061,8.662338 -10.26828,13.118546 -19.131889,9.863869zm8.896782,-5.561554c6.302124,-3.222931 7.561325,-10.125717 2.607529,-14.29406c-4.709732,-3.96299 -10.715179,-2.82576 -13.498268,2.556145c-4.16777,8.05957 2.992676,15.777023 10.890739,11.737915zm-4.88868,-4.634209c-1.851952,-1.292366 -2.339401,-3.986366 -1.042282,-5.760292c2.553192,-3.491684 8.311287,0.596054 6.002922,4.261543c-1.243225,1.974152 -3.362061,2.614311 -4.96064,1.498749zm-37.850594,6.751251c0.927856,-3.451881 1.02623,-3.490341 3.97908,-1.555557c2.991386,1.96003 2.655586,3.274094 -0.416504,1.629967c-1.62912,-0.871872 -2.250702,-0.739174 -3.1334,0.668976c-0.920792,1.468895 -0.991081,1.347137 -0.429176,-0.743385zm14.923531,1c-0.339905,-0.550003 0.083534,-1 0.940994,-1c0.85746,0 1.559006,0.449997 1.559006,1c0,0.549995 -0.423439,1 -0.940979,1c-0.51754,0 -1.219101,-0.450005 -1.559021,-1zm90.974968,-2.437004c-1.588913,-1.365303 -3.089813,-2.281479 -3.335358,-2.035934c-0.245544,0.245537 -1.883362,-0.441643 -3.639603,-1.527061c-1.756256,-1.085419 -3.445389,-1.721268 -3.753662,-1.41301c-1.053436,1.053436 -6.746368,-2.634514 -6.734467,-4.362671c0.006531,-0.94838 0.676178,-4.199318 1.488129,-7.224312c0.811935,-3.025002 1.481598,-6.989059 1.488129,-8.809021c0.006531,-1.819954 0.349365,-3.101959 0.761871,-2.848885c0.412491,0.253067 2.549988,0.720406 4.75,1.038528c2.199997,0.31813 7.518982,1.37513 11.819992,2.348892c7.819977,1.770485 7.819977,1.770485 7.16954,6.148323c-1.067047,7.181961 -1.172318,7.290085 -5.336182,5.480606c-2.009338,-0.873199 -4.215851,-1.611076 -4.903351,-1.639709c-0.6875,-0.028641 -1.256897,-0.764572 -1.26532,-1.635406c-0.012329,-1.275414 -0.183258,-1.318237 -0.878952,-0.220177c-0.650208,1.026283 -1.142166,0.655571 -1.990662,-1.5c-1.127029,-2.863152 -1.127029,-2.863152 -0.580978,-0.029373c0.321152,1.66655 0.154831,2.591995 -0.403778,2.246765c-0.5224,-0.322868 -1.674759,-0.308853 -2.560806,0.031151c-2.174042,0.834259 3.074158,3.62558 10.243454,5.448067c4.653229,1.182892 5.232254,1.60453 4.662842,3.395424c-0.35759,1.124649 -0.950043,3.582848 -1.316589,5.462677c-0.851593,4.367416 -2.096741,4.727791 -5.68425,1.645126zm-41.88353,-0.829445c-3.754074,-2.145271 -3.915253,-2.450943 -4.077942,-7.733551c-0.09314,-3.025002 -0.921799,-6.940147 -1.841431,-8.700333c-2.388016,-4.570702 -2.321136,-4.62751 4.577942,-3.888649c12.758438,1.366394 12.936554,1.438721 12.211136,4.96019c-1.619446,7.861359 -4.871689,17.627251 -5.86528,17.612343c-0.602722,-0.009048 -2.854706,-1.021553 -5.004425,-2.25zm17.409927,-10.483551c0.000763,-0.962502 0.67514,-5.574989 1.498642,-10.249992c0.823502,-4.674995 1.497879,-8.702499 1.498627,-8.949997c0.000748,-0.247505 0.458374,0.007011 1.016953,0.565575c1.673798,1.673805 -1.156021,20.384415 -3.082977,20.384415c-0.512924,0 -0.931992,-0.787498 -0.931244,-1.75zm-67.693123,-14.295815c-8.191757,-3.87352 -8.191757,-3.87352 -7.309639,-6.949333c0.485176,-1.691696 1.808975,-4.575462 2.941772,-6.408363c1.13279,-1.832901 2.059624,-4.136681 2.059624,-5.119507c0,-1.605255 0.17794,-1.634796 1.75,-0.29052c3.187996,2.726044 13.984161,8.813545 15.630814,8.813545c4.233505,0 -1.238548,-5.436882 -10.113914,-10.048866c-6.233086,-3.238972 -6.233086,-3.238972 -4.187859,-6.845051c1.12487,-1.983341 3.194321,-4.929203 4.59877,-6.546341c2.37117,-2.73024 2.719193,-2.837379 4.872383,-1.5c1.275352,0.792141 6.398293,3.836578 11.384308,6.765411c4.986038,2.928829 9.065506,5.948547 9.065506,6.710468c0,0.761917 -2.116089,5.247353 -4.702423,9.967598c-3.989769,7.281639 -5.315819,8.854263 -8.75,10.376999c-2.226173,0.987114 -4.665184,2.542885 -5.420021,3.45726c-1.82518,2.210945 -2.310242,2.113136 -11.819321,-2.383301zm50.330132,-0.454178c-0.369751,-0.963562 -1.927933,-1.504875 -4.356995,-1.513657c-6.749039,-0.024368 -8.51767,-0.904495 -7.781693,-3.872398c0.356506,-1.43766 1.057129,-2.761353 1.556961,-2.941513c0.499817,-0.180161 2.27066,-2.880157 3.935211,-6c1.664566,-3.119827 4.042999,-6.945084 5.285446,-8.50053c2.258972,-2.828091 2.258972,-2.828091 8.740829,0.62579c7.214005,3.844009 6.733261,2.436432 5.456421,15.975861c-0.638779,6.773537 -0.638779,6.773537 -5.556671,6.12117c-3.371384,-0.447227 -4.917877,-0.297409 -4.917877,0.476448c0,1.646385 -1.689301,1.380875 -2.361633,-0.37117zm-23.219666,-4.25c0.12381,-1.487862 6.015564,-13.877541 7.223618,-15.190475c0.222916,-0.242264 1.083099,0.237328 1.91153,1.065758c1.341644,1.341652 1.051743,2.291267 -2.653137,8.690475c-3.960922,6.841484 -6.796982,9.219116 -6.48201,5.434242zm70.331299,-0.939316c-1.853226,-0.484306 -2.44603,-2.310684 -0.75,-2.310684c0.549988,0 1,-0.449997 1,-1c0,-0.549995 -0.705322,-1 -1.567398,-1c-1.149048,0 -1.385147,-0.574165 -0.884598,-2.151276c0.542877,-1.710449 0.351776,-2.024246 -0.932602,-1.53138c-1.830933,0.702583 -2.043549,-0.118492 -0.600098,-2.317345c0.875275,-1.333336 1.094101,-1.333336 1.969376,0c0.843002,1.284149 0.986893,1.248169 1,-0.25c0.008423,-0.962502 -0.434692,-1.75 -0.98468,-1.75c-0.550003,0 -1,-0.449997 -1,-1c0,-1.555878 5.303329,-1.17627 7.777481,0.556702c1.620453,1.135002 2.218811,2.557198 2.208862,5.25c-0.028641,7.744453 -1.294205,9.056816 -7.236343,7.503983zm1.147629,-9.727356c-0.098846,-3.943054 -0.127716,-3.97728 -0.840408,-0.99604c-0.405945,1.698013 -1.015091,3.535515 -1.353653,4.083336c-0.338577,0.547821 0.039612,0.99604 0.840424,0.99604c1.05368,0 1.427719,-1.128326 1.353638,-4.083336zm-13.254517,6.72644c-0.141418,-0.141411 -2.44722,-0.519997 -5.124023,-0.841324c-8.0224,-0.963005 -8.693451,-1.66275 -8.403671,-8.763077c0.228882,-5.608177 0.522018,-6.339485 3.317825,-8.277546c2.809921,-1.94783 4.972168,-1.91428 7.390488,0.1147c0.178055,0.149387 -0.317581,1.55093 -1.101425,3.114548c-1.09465,2.183598 -1.184525,3.654644 -0.387527,6.34293c0.962311,3.245888 1.067047,3.318489 1.442612,1c0.222733,-1.375 1.108673,-3.287498 1.968765,-4.25c1.413116,-1.58136 1.084885,-2.19701 -0.996155,-1.86842c-0.412506,0.065132 -0.75,-0.55658 -0.75,-1.38158c0,-0.824997 0.626862,-1.5 1.393005,-1.5c2.136703,0 2.838684,3.08651 1.131104,4.973358c-1.677841,1.853996 -2.023575,4.026642 -0.640747,4.026642c0.485855,0 1.143005,-0.992851 1.460342,-2.206329c0.317337,-1.213486 0.856277,-1.927032 1.197647,-1.585648c0.34137,0.341377 0.213989,1.446732 -0.283112,2.456329c-0.49707,1.009605 -0.586777,3.185646 -0.199326,4.835648c0.489044,2.082703 0.762115,2.388458 0.893051,1c0.188599,-2 0.188599,-2 1.048035,0c1.29805,3.020729 1.177979,3.389114 -1.049911,3.221291c-1.127426,-0.08493 -2.165588,-0.270111 -2.306976,-0.411522zm-6.491943,-11.627609c-0.623611,-0.751396 -0.800217,-1.734417 -0.392487,-2.184498c0.407715,-0.450069 0.177597,-0.493851 -0.511383,-0.097301c-0.9366,0.53907 -0.979248,1.231995 -0.168991,2.745972c0.596054,1.113731 1.336395,1.772293 1.645203,1.463478c0.308823,-0.308815 0.05127,-1.176262 -0.572342,-1.92765zm12.559082,2.317841c-0.287659,-1.099998 -0.115143,-2 0.383362,-2c0.49852,0 0.906387,0.900002 0.906387,2c0,1.099998 -0.172531,2 -0.383377,2c-0.210846,0 -0.618713,-0.900002 -0.906372,-2zm9.539749,-3.220497c-1.237503,-0.596825 -2.25,-1.466362 -2.25,-1.932312c0,-1.40514 1.641693,-0.961098 4.139221,1.119537c2.572571,2.143166 1.672348,2.530457 -1.889221,0.812775zm-6,-2.44178c-2.047211,-0.826073 -1.416763,-2.194092 0.75,-1.627472c1.099991,0.287651 2,0.920532 2,1.40638c0,0.953381 -0.779831,1.016071 -2.75,0.221092zm-60.671082,-5.737072c-3.23494,-2.41964 -9.413597,-6.500248 -13.730324,-9.068027c-4.316727,-2.567783 -7.848602,-4.936031 -7.848602,-5.262802c0,-0.982269 5.040794,-9.269821 5.638252,-9.269821c1.799034,0 11.420868,3.286621 11.902283,4.065582c0.317627,0.513927 1.395844,0.934418 2.396042,0.934418c1.000198,0 2.358414,0.650513 3.01825,1.445572c0.659851,0.795071 3.607315,1.984379 6.549911,2.642899c4.493576,1.005623 5.449448,1.614731 5.9702,3.80442c0.341019,1.43391 0.831299,3.323132 1.089523,4.198261c0.496185,1.681671 -6.336395,10.898388 -8.084122,10.904999c-0.560837,0.00211 -3.666458,-1.975861 -6.901413,-4.3955zm62.538834,1.804352c-2.410233,-1.279572 -4.885223,-2.507549 -5.5,-2.72884c-0.614761,-0.221291 -0.866013,-0.6782 -0.558334,-1.01535c0.307678,-0.337139 2.220184,0.277119 4.25,1.36504c2.029816,1.087921 3.690582,1.740601 3.690582,1.450409c0,-0.290188 1.349991,0.17049 3,1.023739c1.649994,0.853252 3,1.764801 3,2.025681c0,1.075401 -3.775238,0.0597 -7.882248,-2.120678zm-37.867752,-0.989441c-2.271286,-0.993279 -3.25412,-2.098011 -3.263657,-3.66843c-0.007507,-1.23592 -0.285004,-3.259628 -0.616638,-4.497131c-0.466232,-1.739738 -0.179657,-2.256897 1.263657,-2.280407c1.746765,-0.028461 1.754257,-0.095871 0.116638,-1.04969c-0.962509,-0.560612 -1.75,-1.671921 -1.75,-2.469593c0,-1.817528 0.403061,-1.81036 4.042862,0.071861c4.084061,2.11195 7.957138,3.52898 7.957138,2.911251c0,-0.284389 -3.000122,-1.863132 -6.666931,-3.50832c-5.036026,-2.25951 -6.38475,-3.273422 -5.513443,-4.14473c1.262802,-1.26281 22.180374,8.412239 22.180374,10.25914c0,1.244247 -0.108994,1.230721 -4.345764,-0.539513c-4.258179,-1.779179 -4.993195,-1.857449 -4.116119,-0.43832c0.360886,0.583931 1.810715,1.500652 3.221863,2.037163c1.696854,0.645149 2.229736,1.31144 1.573593,1.96759c-0.656158,0.656147 -1.981171,0.476337 -3.912842,-0.531002c-4.361832,-2.27462 -5.414017,-1.817501 -1.533768,0.66634c3.386963,2.168072 3.386963,2.168072 0.5,4.47818c-3.284393,2.628132 -4.572311,2.731819 -9.136963,0.735611zm24.5,-0.104889c-0.962509,-0.251522 -1.75,-0.874321 -1.75,-1.384003c0,-1.342567 1.336807,-1.139149 3.558868,0.541531c1.945145,1.47123 1.460648,1.696892 -1.808868,0.842472zm14.25,-2.910961c-3.025009,-1.419411 -10.675003,-4.601318 -17,-7.070919c-6.325012,-2.469589 -12.400009,-5.04866 -13.5,-5.73127c-1.100006,-0.682602 -4.025009,-2.034363 -6.5,-3.003891c-10.064209,-3.942451 -34.014008,-14.91297 -33.556152,-15.370831c1.046982,-1.04698 27.551743,9.734581 40.674026,16.545319c4.189835,2.17461 9.589828,4.659492 12,5.521973c10.557037,3.777798 24.882126,10.24633 24.882126,11.235588c0,0.905502 -1.529297,0.44104 -7,-2.125969zm-12.25,-0.561989c-2.621689,-0.95752 -3.812363,-2.837723 -1.797058,-2.837723c1.668304,0 6.047058,2.28857 6.047058,3.160511c0,1.025032 -0.706635,0.971359 -4.25,-0.322788zm16.25,-1.550133c-0.825012,-0.304977 -3.975006,-1.76572 -7,-3.246098c-3.025009,-1.48037 -5.725006,-2.741261 -6,-2.801991c-1.355118,-0.299221 -4.899246,-1.65799 -8.5,-3.25877c-2.200012,-0.97805 -7.825012,-3.421932 -12.5,-5.430851c-4.675003,-2.008919 -9.20665,-4.03278 -10.070313,-4.497478c-0.863663,-0.464703 -5.070267,-2.301941 -9.347977,-4.082762c-11.330719,-4.71699 -19.766159,-9.07852 -16.081711,-8.31502c6.173981,1.27939 29.997452,11.242611 34.654358,14.492809c1.4599,1.018909 2.966904,1.85257 3.348877,1.85257c0.381973,0 2.112503,0.6469 3.845627,1.437572c1.733124,0.790661 6.076126,2.63353 9.651138,4.095268c3.574997,1.461742 7.849991,3.261711 9.5,3.99995c1.649994,0.738239 4.6875,2.022411 6.75,2.853699c2.0625,0.831303 3.75,1.984421 3.75,2.562481c0,0.578072 -0.112503,1.015499 -0.25,0.97208c-0.137512,-0.043419 -0.925003,-0.32848 -1.75,-0.633461zm-1,-5.28759c-0.825012,-0.533157 -2.512512,-0.976269 -3.75,-0.984688c-1.237503,-0.008419 -2.25,-0.465309 -2.25,-1.015312c0,-0.549999 -0.592056,-1 -1.315659,-1c-0.723633,0 -4.74791,-1.74477 -8.942886,-3.877258c-4.194977,-2.132492 -8.836807,-4.18084 -10.315216,-4.551891c-4.467026,-1.121159 -41.693069,-17.63736 -41.096848,-18.23358c0.827881,-0.827869 14.225372,4.20318 28.170609,10.57868c8.25,3.771751 20.399994,9.237843 27,12.146881c6.599991,2.909039 12.65892,5.88496 13.464279,6.613159c1.70813,1.544491 1.192413,1.717781 -0.964279,0.324009zm-4.507935,-5.983967c-2.204361,-0.950623 -6.479355,-2.874413 -9.5,-4.275082c-3.020645,-1.400669 -9.767075,-4.221581 -14.992065,-6.268681c-15.059921,-5.90033 -37.569,-16.35889 -35.369064,-16.43378c1.697479,-0.05778 13.907562,4.665111 22.132629,8.56096c3.994965,1.892241 9.586624,4.356091 12.425919,5.475241c5.384277,2.12228 29.001404,12.883568 29.727188,13.545368c1.317566,1.201443 -0.958481,0.89072 -4.424606,-0.604027zm-59.037857,-3.776814c-4.425171,-2.056568 -9.712677,-4.385708 -11.749992,-5.175869c-2.037323,-0.79015 -3.704224,-1.760529 -3.704224,-2.15638c0,-1.028389 4.220833,0.13666 6.000008,1.656151c0.824997,0.704578 2.849991,1.59465 4.5,1.977928c1.649994,0.383293 3.953827,1.290283 5.119614,2.015541c1.165787,0.725262 3.610184,1.704891 5.431976,2.176971c1.821808,0.47208 3.492981,1.40015 3.713715,2.062378c0.60936,1.828072 -0.577423,1.502201 -9.311096,-2.556721zm10.998764,1.304974c-0.524139,-0.727623 -6.246475,-3.691723 -12.716324,-6.586903c-6.469818,-2.895168 -11.631966,-5.395319 -11.471405,-5.55587c0.313065,-0.313068 9.614609,2.92741 18.984756,6.613911c3.162491,1.244228 5.75,2.83728 5.75,3.540119c0,0.702831 0.540329,1.457993 1.200745,1.678131c0.744247,0.248089 0.821426,0.634689 0.202988,1.016899c-0.548782,0.339161 -1.42662,0.021332 -1.95076,-0.706287zm43.687881,-4.093372c-2.947525,-1.338669 -5.760025,-2.186199 -6.25,-1.883369c-0.489975,0.302818 -0.890854,0.07402 -0.890854,-0.50843c0,-0.58246 -0.5625,-1.057539 -1.25,-1.055719c-1.231689,0.00325 -15.155045,-6.021259 -33.75,-14.603331c-12.913391,-5.959869 -9.560745,-5.565149 5.096497,0.600031c6.537903,2.75 12.134552,5 12.436996,5c0.302444,0 3.343643,1.27339 6.758209,2.82975c3.414566,1.55636 10.363968,4.593859 15.4431,6.75c5.079147,2.15613 9.241653,4.25775 9.25,4.670248c0.022827,1.127121 -0.982956,0.862713 -6.843948,-1.799179zm-1.140854,-5.450819c-3.025009,-1.59811 -6.147568,-2.92688 -6.939011,-2.95282c-1.779129,-0.058331 -33.651093,-13.653271 -36.979752,-15.77367c-2.418777,-1.540771 -2.418777,-1.540771 0.412872,-3.02442c4.278519,-2.24175 21.326309,-0.88742 28.00589,2.22487c5.29686,2.46803 17.5,13.536 17.5,15.8721c0,0.76132 0.932648,2.56991 2.072571,4.019079c1.139923,1.449171 1.927429,2.61363 1.75,2.587679c-0.177414,-0.025948 -2.797577,-1.354719 -5.822571,-2.952818z"/>
 </g>
</svg>